<?xml version="1.0" standalone="no"?>
<!DOCTYPE svg PUBLIC "-//W3C//DTD SVG 20010904//EN"
 "http://www.w3.org/TR/2001/REC-SVG-20010904/DTD/svg10.dtd">
<svg version="1.0" xmlns="http://www.w3.org/2000/svg"
 width="378.000000pt" height="378.000000pt" viewBox="0 0 378.000000 378.000000"
 preserveAspectRatio="xMidYMid meet">
<metadata>
Created by potrace 1.14, written by Peter Selinger 2001-2017
</metadata>
<g transform="translate(0.000000,378.000000) scale(0.100000,-0.100000)"
fill="#000000" stroke="none">
<path d="M1675 3319 c-102 -82 -175 -162 -175 -191 0 -15 -6 -31 -12 -35 -9
-5 -13 -34 -13 -83 -1 -134 -17 -314 -31 -342 -8 -15 -14 -40 -14 -57 0 -16
-4 -32 -9 -36 -6 -3 -58 -17 -118 -30 -59 -14 -142 -34 -183 -45 -119 -31
-347 -23 -521 20 -26 6 -72 10 -104 8 l-57 -3 49 -30 c26 -16 92 -71 145 -121
121 -115 159 -134 261 -134 42 0 78 4 81 9 9 13 293 151 345 167 24 8 54 11
67 8 28 -7 31 -37 13 -143 -9 -53 -19 -74 -48 -106 -35 -38 -133 -170 -228
-308 -24 -34 -99 -118 -168 -187 l-124 -125 8 -37 c5 -20 19 -51 32 -70 13
-18 29 -52 34 -77 6 -24 18 -49 27 -55 29 -18 97 26 191 126 48 51 118 125
155 163 37 39 75 85 84 103 9 17 21 32 26 32 10 0 3 -272 -7 -280 -3 -3 -7
-21 -7 -40 -1 -19 -7 -64 -14 -100 -9 -44 -11 -94 -5 -154 7 -88 8 -90 50
-135 l44 -46 38 37 c21 21 39 46 40 55 1 10 8 59 16 108 11 65 15 177 15 408
0 309 1 319 21 341 12 12 21 29 21 37 0 9 11 22 25 29 14 8 47 38 73 69 25 30
68 75 95 100 27 25 97 105 155 176 58 72 141 167 186 212 168 171 213 219 231
251 11 17 28 35 39 38 11 4 45 31 76 60 30 29 67 55 81 59 22 6 28 2 39 -25
11 -27 11 -40 -3 -83 -16 -52 -35 -177 -42 -269 -2 -28 -8 -55 -14 -61 -6 -6
-11 -48 -11 -97 0 -47 -7 -110 -15 -140 -26 -93 -27 -121 -8 -143 29 -32 78
-47 158 -47 41 0 84 -4 95 -10 11 -5 29 -14 40 -20 11 -5 35 -10 54 -10 19 0
41 -6 48 -13 7 -7 33 -19 57 -26 102 -30 212 -187 210 -300 -1 -31 -4 -60 -7
-65 -3 -5 -4 -35 -3 -66 2 -41 -2 -60 -13 -69 -9 -8 -16 -27 -16 -43 0 -16 -6
-31 -15 -34 -8 -4 -15 -15 -15 -27 0 -12 -20 -40 -47 -65 -27 -24 -48 -48 -48
-53 0 -14 -135 -128 -175 -149 -19 -10 -69 -28 -110 -40 -66 -20 -89 -22 -193
-17 -127 7 -258 40 -237 61 5 5 10 16 10 22 0 7 15 34 33 59 56 81 67 100 67
116 0 9 9 24 20 34 11 10 20 28 20 40 0 13 7 25 15 29 8 3 15 16 15 30 0 14 4
27 9 30 14 9 22 117 12 176 -8 48 -14 59 -62 102 -59 52 -102 78 -130 78 -32
0 -29 -16 11 -55 37 -36 40 -43 40 -95 -1 -30 -5 -74 -9 -98 -5 -25 -5 -45 1
-48 5 -3 3 -13 -5 -22 -8 -10 -26 -57 -42 -107 -31 -103 -64 -177 -97 -218
-23 -27 -24 -28 -59 -13 -19 8 -42 22 -49 31 -14 17 -94 75 -103 75 -16 0 -14
-36 3 -60 11 -15 20 -33 20 -38 0 -6 9 -14 20 -17 27 -9 80 -88 80 -119 0 -18
-16 -43 -50 -78 -27 -28 -50 -57 -50 -63 0 -6 -11 -22 -24 -34 -13 -13 -26
-31 -29 -42 -4 -15 0 -19 21 -19 20 0 53 25 129 96 l103 95 105 -50 c57 -28
111 -51 120 -51 8 0 33 -7 55 -16 34 -14 60 -15 184 -7 108 7 150 13 163 25
10 9 33 19 52 23 93 20 290 183 308 254 3 14 21 42 38 62 18 20 36 47 40 60 4
13 10 26 14 29 33 27 70 185 71 303 0 53 -5 75 -20 97 -19 26 -19 28 -2 35 15
6 15 8 2 18 -8 7 -15 17 -16 22 -5 55 -24 86 -99 161 -89 89 -168 136 -257
155 -29 6 -75 21 -103 34 -27 13 -91 31 -141 41 l-91 17 8 41 c5 23 15 82 24
131 9 50 27 134 41 187 13 54 24 110 23 125 -1 16 5 48 14 72 8 24 13 50 10
57 -3 8 -1 20 4 27 5 6 16 38 23 70 l13 58 -34 33 c-29 28 -43 34 -101 40
l-66 6 -114 -109 c-62 -61 -117 -115 -123 -121 -49 -57 -315 -314 -370 -358
-38 -31 -113 -97 -165 -147 -52 -50 -121 -107 -152 -128 -31 -21 -60 -42 -63
-47 -3 -6 -15 -10 -26 -10 -16 0 -19 7 -19 51 0 47 4 56 74 147 72 94 161 256
185 337 7 22 23 61 37 86 26 50 31 79 13 79 -15 0 -89 -76 -89 -92 0 -22 -68
-99 -105 -119 -19 -11 -46 -19 -60 -19 -23 0 -25 3 -25 48 1 62 23 165 48 227
12 28 24 64 27 80 8 36 96 125 154 155 25 12 41 27 41 38 0 10 6 24 13 31 10
10 7 16 -11 29 -13 10 -43 36 -66 60 -24 23 -50 42 -57 42 -8 -1 -36 -19 -64
-41z"/>
<path d="M2086 2111 c-32 -26 -35 -31 -21 -44 8 -8 20 -17 27 -19 13 -5 -14
-146 -46 -238 -8 -25 -21 -67 -27 -93 -7 -27 -24 -65 -37 -85 -20 -28 -27 -53
-30 -104 -4 -64 -3 -68 24 -92 39 -34 63 -41 81 -23 25 25 61 124 68 190 5 42
13 66 25 74 10 7 21 26 25 42 3 16 13 32 21 35 8 3 14 13 14 23 0 10 20 61 45
113 54 115 57 152 16 198 -56 60 -127 69 -185 23z"/>
<path d="M1920 820 c0 -15 5 -20 18 -18 9 2 17 10 17 18 0 8 -8 16 -17 18 -13
2 -18 -3 -18 -18z"/>
</g>
</svg>
